<svg version="1.1" viewBox="0 0 96 96" xmlns="http://www.w3.org/2000/svg" xmlns:xlink="http://www.w3.org/1999/xlink" id="Icons" overflow="hidden"><style>
.MsftOfcThm_Background1_Fill {
 fill:#FFFFFF; 
}
</style>
<path d=" M 48 21.8 L 62.4 36.3 L 65.2 33.5 L 48 17 L 30.4 33.8 L 33.2 36.6 Z" stroke="none" stroke-width="1" stroke-linecap="butt" stroke-dasharray="" stroke-dashoffset="1" fill="#FFFFFF" fill-opacity="1"/><path d=" M 80 57.9 L 72 57.9 L 72 49.9 L 80 49.9 L 80 57.9 Z M 80 69.9 L 72 69.9 L 72 61.9 L 80 61.9 L 80 69.9 Z M 68 57.9 L 60 57.9 L 60 49.9 L 68 49.9 L 68 57.9 Z M 68 69.9 L 60 69.9 L 60 61.9 L 68 61.9 L 68 69.9 Z M 55 57.9 L 41 57.9 L 41 53.9 L 55 53.9 L 55 57.9 Z M 48 38.9 C 49.7 38.9 51 40.2 51 41.9 C 51 43.6 49.7 44.9 48 44.9 C 46.3 44.9 45 43.6 45 41.9 C 45 40.2 46.3 38.9 48 38.9 Z M 36 57.9 L 28 57.9 L 28 49.9 L 36 49.9 L 36 57.9 Z M 36 69.9 L 28 69.9 L 28 61.9 L 36 61.9 L 36 69.9 Z M 24 57.9 L 16 57.9 L 16 49.9 L 24 49.9 L 24 57.9 Z M 24 69.9 L 16 69.9 L 16 61.9 L 24 61.9 L 24 69.9 Z M 60 44.9 L 60 38.9 L 48 26.9 L 36 38.9 L 36 44.9 L 12 44.9 L 12 78.9 L 41 78.9 L 41 67.9 C 41 65.1 43 61.9 48 61.9 C 53 61.9 55 65.1 55 67.9 L 55 78.9 L 84 78.9 L 84 44.9 L 60 44.9 Z" stroke="none" stroke-width="1" stroke-linecap="butt" stroke-dasharray="" stroke-dashoffset="1" fill="#FFFFFF" fill-opacity="1"/></svg>