<svg version="1.1" viewBox="0 0 96 96" xmlns="http://www.w3.org/2000/svg" xmlns:xlink="http://www.w3.org/1999/xlink" id="Icons" overflow="hidden"><style>
.MsftOfcThm_Background1_Fill {
 fill:#FFFFFF; 
}
</style>
<g><path d=" M 50 30 L 46 30 C 43.8 30 42 28.2 42 26 L 42 18 C 42 15.8 43.8 14 46 14 L 50 14 C 52.2 14 54 15.8 54 18 L 54 26 C 54 28.2 52.2 30 50 30 Z" stroke="none" stroke-width="1" stroke-linecap="butt" stroke-dasharray="" stroke-dashoffset="1" fill="#FFFFFF" fill-opacity="1"/><path d=" M 80 50 L 56 50 L 56 46 L 80 46 L 80 50 Z M 80 62 L 56 62 L 56 58 L 80 58 L 80 62 Z M 80 74 L 56 74 L 56 70 L 80 70 L 80 74 Z M 48 74 L 16 74 L 16 66 C 16 64.8 16.6 63.6 17.6 62.8 C 19.8 61.2 22.6 59.8 25.4 59 C 27.6 58.4 29.8 58 32 58 C 34.4 58 36.6 58.4 38.6 59 C 41.4 59.8 44.2 61 46.4 62.8 C 47.4 63.6 48 64.8 48 66 L 48 74 Z M 32 40 C 36.4 40 40 43.6 40 48 C 40 52.4 36.4 56 32 56 C 27.6 56 24 52.4 24 48 C 24 43.6 27.6 40 32 40 Z M 84 26 L 58 26 C 58 30.4 54.4 34 50 34 L 46 34 C 41.6 34 38 30.4 38 26 L 12 26 C 9.8 26 8 27.8 8 30 L 8 78 C 8 80.2 9.8 82 12 82 L 84 82 C 86.2 82 88 80.2 88 78 L 88 30 C 88 27.8 86.2 26 84 26 Z" stroke="none" stroke-width="1" stroke-linecap="butt" stroke-dasharray="" stroke-dashoffset="1" fill="#FFFFFF" fill-opacity="1"/></g></svg>