<svg version="1.1" viewBox="0 0 96 96" xmlns="http://www.w3.org/2000/svg" xmlns:xlink="http://www.w3.org/1999/xlink" id="Icons" overflow="hidden"><style>
.MsftOfcThm_Background1_Fill {
 fill:#FFFFFF; 
}
</style>
<path d=" M 64.5 51.5 L 71 58 L 77.5 51.5 L 84 58 L 92 48 L 84 38 L 43.5 38 C 39.9 31.4 33 27 25 27 C 13.4 27 4 36.4 4 48 C 4 59.6 13.4 69 25 69 C 33 69 39.9 64.6 43.5 58 L 50 58 L 54 54 L 58 58 L 64.5 51.5 Z M 16 54 C 12.7 54 10 51.3 10 48 C 10 44.7 12.7 42 16 42 C 19.3 42 22 44.7 22 48 C 22 51.3 19.3 54 16 54 Z" stroke="none" stroke-width="1" stroke-linecap="butt" stroke-dasharray="" stroke-dashoffset="1" fill="#FFFFFF" fill-opacity="1"/></svg>